<?xml version="1.0" standalone="no"?>
<!DOCTYPE svg PUBLIC "-//W3C//DTD SVG 20010904//EN"
 "http://www.w3.org/TR/2001/REC-SVG-20010904/DTD/svg10.dtd">
<svg version="1.0" xmlns="http://www.w3.org/2000/svg"
 width="345.000000pt" height="312.000000pt" viewBox="0 0 345.000000 312.000000"
 preserveAspectRatio="xMidYMid meet">
<metadata>
Created by potrace 1.10, written by Peter Selinger 2001-2011
</metadata>
<g transform="translate(0.000000,312.000000) scale(0.100000,-0.100000)"
fill="#1984d7" stroke="none">
<path d="M2745 2698 c-16 -6 -102 -12 -189 -14 -125 -3 -163 -7 -176 -19 -12
-11 -41 -15 -116 -15 -67 -1 -107 -5 -124 -15 -14 -8 -51 -14 -83 -15 -33 0
-71 -7 -89 -16 -20 -10 -45 -14 -70 -11 -31 4 -40 1 -48 -14 -12 -22 -66 -27
-73 -6 -3 10 -11 10 -39 0 -19 -7 -54 -13 -79 -13 -24 0 -62 -7 -84 -15 -22
-8 -68 -14 -101 -15 -34 0 -78 -7 -97 -15 -20 -8 -56 -15 -79 -15 -24 0 -83
-12 -133 -26 -154 -44 -398 -52 -561 -19 -26 6 -32 3 -42 -19 -6 -14 -18 -26
-26 -26 -21 0 -30 -18 -38 -80 -17 -131 -27 -145 -119 -155 -96 -11 -197 -57
-206 -92 -9 -38 4 -92 30 -126 58 -77 83 -179 55 -230 -25 -47 -27 -100 -6
-160 14 -42 18 -71 14 -101 -6 -39 -3 -47 27 -83 18 -22 48 -70 67 -107 19
-37 47 -80 62 -94 43 -42 37 -67 -23 -96 -28 -15 -59 -26 -69 -26 -24 0 -120
-87 -120 -109 0 -23 84 -107 132 -132 20 -10 39 -27 43 -38 7 -24 33 -35 50
-21 7 6 19 25 26 43 24 61 49 88 78 85 21 -2 27 -9 29 -35 3 -25 -2 -35 -22
-49 -31 -20 -32 -25 -7 -41 29 -18 108 10 147 53 34 37 55 42 74 19 28 -34
-36 -122 -106 -145 -42 -14 -43 -35 -3 -59 25 -16 44 -18 122 -13 55 3 101 11
114 19 14 10 33 12 52 8 18 -4 38 -1 51 7 19 12 23 10 41 -12 41 -53 40 -53
93 -47 28 4 61 9 72 12 15 5 23 1 28 -11 9 -24 -41 -74 -79 -78 -35 -4 -55
-30 -38 -47 7 -7 36 -14 65 -16 44 -4 58 -10 79 -35 23 -27 32 -31 90 -33 35
-1 83 -9 106 -18 33 -13 52 -14 95 -7 195 34 199 35 231 16 30 -17 30 -17 61
13 39 37 159 101 191 101 13 0 32 8 42 19 29 30 72 48 214 86 74 20 166 46
204 57 39 11 107 22 153 25 69 5 89 10 121 33 35 26 39 27 66 13 25 -14 31
-13 70 6 23 12 48 21 56 21 17 0 78 22 97 33 9 6 11 21 7 50 -6 37 -3 45 19
66 26 25 35 65 16 76 -15 9 -12 51 5 65 8 7 15 18 15 24 0 7 16 28 35 46 30
29 35 41 33 70 -2 29 -9 38 -35 49 -28 12 -33 20 -33 48 0 46 13 68 49 83 24
10 33 22 46 65 31 107 10 174 -58 181 -17 1 -35 3 -38 3 -3 1 -15 10 -27 21
-21 20 -21 22 -4 47 12 19 17 47 17 96 0 67 1 70 38 100 20 18 37 40 37 49 0
10 10 41 21 70 58 145 55 194 -14 253 -40 34 -42 39 -40 87 1 29 -4 62 -13 79
-8 16 -12 34 -8 40 3 6 8 45 9 87 3 77 -9 112 -39 112 -6 0 -23 6 -37 14 -39
20 -118 35 -174 33 -27 -1 -61 1 -75 5 -14 4 -38 2 -55 -4z m25 -58 c0 -5 -13
-10 -29 -10 -17 0 -33 5 -36 10 -4 6 8 10 29 10 20 0 36 -4 36 -10z m158 -1
c-2 -6 -8 -10 -13 -10 -5 0 -11 4 -13 10 -2 6 4 11 13 11 9 0 15 -5 13 -11z
m-1459 -418 c100 -19 182 -75 210 -141 6 -14 15 -32 20 -40 42 -72 54 -232 47
-592 -6 -269 -15 -342 -46 -398 -5 -8 -18 -33 -30 -56 -38 -76 -112 -127 -225
-154 -73 -18 -346 -26 -373 -11 l-22 12 0 677 c0 607 2 680 16 701 16 22 18
23 183 18 91 -3 190 -10 220 -16z m1021 0 c16 -30 13 -146 -4 -160 -9 -8 -48
-12 -108 -10 l-93 2 -3 -603 c-1 -448 -5 -607 -14 -617 -17 -20 -195 -15 -208
6 -4 8 -8 279 -8 603 1 431 -2 592 -11 601 -7 7 -41 10 -91 8 -118 -4 -120 -3
-120 77 0 119 -21 112 340 112 296 0 310 -1 320 -19z m656 -8 c17 -17 17 -18
-5 -21 -27 -4 -47 11 -37 27 10 16 22 14 42 -6z m-1406 -89 c18 -45 11 -61
-10 -26 -22 36 -25 52 -10 52 6 0 15 -12 20 -26z m248 -143 c2 -12 1 -29 -2
-38 -9 -22 -36 2 -36 32 0 41 32 47 38 6z m-83 10 c3 -5 1 -12 -4 -15 -13 -8
-42 4 -35 15 7 12 31 12 39 0z m85 -133 c0 -40 -9 -51 -34 -42 -23 9 -22 80 1
93 23 12 33 -3 33 -51z m-80 -5 c0 -12 -5 -25 -10 -28 -15 -9 -23 21 -15 52 5
21 8 24 16 12 5 -7 9 -24 9 -36z m-97 -20 c4 -19 2 -33 -3 -33 -6 0 -10 17
-10 37 0 43 5 41 13 -4z m173 -251 c-3 -114 -5 -231 -5 -261 -1 -45 -3 -52
-15 -42 -11 9 -15 37 -15 104 0 51 -1 102 -1 115 -1 36 -2 81 -3 185 -2 76 1
100 13 107 8 5 18 6 22 4 5 -3 7 -99 4 -212z m-86 152 c0 -14 -4 -23 -10 -19
-5 3 -10 15 -10 26 0 10 5 19 10 19 6 0 10 -12 10 -26z m-3 -126 c-2 -13 -4
-5 -4 17 -1 22 1 32 4 23 2 -10 2 -28 0 -40z m1247 -47 c4 -5 0 -11 -6 -14
-18 -5 -48 3 -48 14 0 12 47 12 54 0z m-144 -545 c-15 -15 -33 4 -19 20 10 12
14 12 20 2 5 -7 4 -17 -1 -22z"/>
<path d="M1290 2068 c0 -7 -1 -248 -3 -535 -2 -287 -1 -527 4 -534 9 -16 76
-15 124 1 86 28 94 74 95 521 0 296 -3 364 -16 410 -20 70 -62 114 -123 129
-25 6 -54 13 -63 16 -11 3 -18 0 -18 -8z m75 -58 c6 -10 -24 -59 -37 -60 -5 0
-8 16 -8 35 0 28 4 35 19 35 11 0 23 -4 26 -10z m-5 -125 c0 -8 8 -16 18 -18
12 -4 11 -5 -6 -6 -12 0 -25 -8 -28 -16 -11 -26 -24 -16 -24 18 0 19 3 36 6
40 9 9 34 -4 34 -18z m-20 -142 c0 -20 -3 -24 -11 -16 -7 7 -9 19 -6 27 10 24
17 19 17 -11z m90 -1 c0 -28 -11 -34 -31 -16 -21 19 -16 34 12 34 12 0 19 -7
19 -18z m5 -99 c-9 -53 -23 -63 -35 -27 -17 48 -18 47 39 63 2 1 0 -16 -4 -36z
m5 -118 c0 -16 -6 -25 -15 -25 -15 0 -21 31 -8 43 13 14 23 6 23 -18z"/>
</g>
</svg>
